<svg xmlns="http://www.w3.org/2000/svg" xmlns:xlink="http://www.w3.org/1999/xlink" width="500" zoomAndPan="magnify" viewBox="0 0 375 374.999991" height="500" preserveAspectRatio="xMidYMid meet" version="1.0"><path fill="#a1acb6" d="M 237.488281 83.679688 C 256.902344 83.679688 272.644531 99.417969 272.644531 118.835938 C 272.644531 138.253906 256.902344 153.992188 237.488281 153.992188 C 218.070312 153.992188 202.332031 138.253906 202.332031 118.835938 C 202.332031 99.417969 218.070312 83.679688 237.488281 83.679688 Z M 265.320312 63.96875 C 262.46875 62.507812 259.535156 61.289062 256.554688 60.3125 C 256.554688 60.3125 250.1875 68.488281 250.1875 68.488281 C 250.1875 68.488281 238.804688 66.878906 238.804688 66.878906 C 238.804688 66.878906 234.894531 57.277344 234.894531 57.277344 C 231.472656 57.414062 228.070312 57.828125 224.722656 58.523438 C 224.722656 58.523438 223.308594 68.785156 223.308594 68.785156 C 223.308594 68.785156 212.664062 73.085938 212.664062 73.085938 C 212.664062 73.085938 204.46875 66.699219 204.46875 66.699219 C 201.609375 68.5 198.875 70.554688 196.304688 72.863281 C 196.304688 72.863281 200.21875 82.484375 200.21875 82.484375 C 200.21875 82.484375 193.171875 91.539062 193.171875 91.539062 C 193.171875 91.539062 182.890625 90.089844 182.890625 90.089844 C 181.285156 93.148438 179.960938 96.304688 178.910156 99.515625 C 178.910156 99.515625 187.109375 105.910156 187.109375 105.910156 C 187.109375 105.910156 185.542969 117.292969 185.542969 117.292969 C 185.542969 117.292969 175.945312 121.171875 175.945312 121.171875 C 176.089844 124.589844 176.515625 128 177.226562 131.347656 C 177.226562 131.347656 187.488281 132.792969 187.488281 132.792969 C 187.488281 132.792969 191.824219 143.449219 191.824219 143.449219 C 191.824219 143.449219 185.457031 151.625 185.457031 151.625 C 187.269531 154.488281 189.332031 157.230469 191.648438 159.804688 C 191.648438 159.804688 201.257812 155.921875 201.257812 155.921875 C 201.257812 155.921875 210.335938 163 210.335938 163 C 210.335938 163 208.917969 173.273438 208.917969 173.273438 C 209.144531 173.394531 209.371094 173.511719 209.597656 173.628906 C 212.445312 175.085938 215.375 176.300781 218.359375 177.28125 C 218.359375 177.28125 224.722656 169.105469 224.722656 169.105469 C 224.722656 169.105469 236.113281 170.707031 236.113281 170.707031 C 236.113281 170.707031 240.019531 180.3125 240.019531 180.3125 C 243.4375 180.179688 246.84375 179.761719 250.191406 179.0625 C 250.191406 179.0625 251.605469 168.808594 251.605469 168.808594 C 251.605469 168.808594 262.246094 164.503906 262.246094 164.503906 C 262.246094 164.503906 270.445312 170.898438 270.445312 170.898438 C 273.304688 169.09375 276.039062 167.035156 278.609375 164.730469 C 278.609375 164.730469 274.695312 155.109375 274.695312 155.109375 C 274.695312 155.109375 281.746094 146.054688 281.746094 146.054688 C 281.746094 146.054688 292.023438 147.5 292.023438 147.5 C 293.632812 144.445312 294.949219 141.285156 296 138.070312 C 296 138.070312 287.804688 131.683594 287.804688 131.683594 C 287.804688 131.683594 289.375 120.296875 289.375 120.296875 C 289.375 120.296875 298.96875 116.421875 298.96875 116.421875 C 298.824219 113 298.394531 109.59375 297.6875 106.246094 C 297.6875 106.246094 287.425781 104.800781 287.425781 104.800781 C 287.425781 104.800781 283.09375 94.144531 283.09375 94.144531 C 283.09375 94.144531 289.457031 85.964844 289.457031 85.964844 C 287.640625 83.101562 285.578125 80.363281 283.265625 77.785156 C 283.265625 77.785156 273.65625 81.667969 273.65625 81.667969 C 273.65625 81.667969 264.578125 74.59375 264.578125 74.59375 C 264.578125 74.59375 265.996094 64.316406 265.996094 64.316406 C 265.769531 64.199219 265.542969 64.082031 265.320312 63.96875 C 265.09375 63.851562 265.320312 63.96875 265.320312 63.96875 Z M 265.320312 63.96875 " fill-opacity="1" fill-rule="nonzero"/><path fill="#4ea0e3" d="M 121.582031 136.960938 C 145.851562 136.960938 165.527344 156.636719 165.527344 180.90625 C 165.527344 205.179688 145.851562 224.851562 121.582031 224.851562 C 97.3125 224.851562 77.636719 205.179688 77.636719 180.90625 C 77.636719 156.636719 97.3125 136.960938 121.582031 136.960938 Z M 150.886719 107.449219 C 150.886719 107.449219 142.046875 117.433594 142.046875 117.433594 C 142.046875 117.433594 127.574219 114.480469 127.574219 114.480469 C 127.574219 114.480469 123.355469 101.855469 123.355469 101.855469 C 118.957031 101.757812 114.558594 102.023438 110.203125 102.652344 C 110.203125 102.652344 107.546875 115.699219 107.546875 115.699219 C 107.546875 115.699219 93.539062 120.382812 93.539062 120.382812 C 93.539062 120.382812 83.554688 111.542969 83.554688 111.542969 C 79.738281 113.632812 76.066406 116.054688 72.578125 118.808594 C 72.578125 118.808594 76.800781 131.453125 76.800781 131.453125 C 76.800781 131.453125 67.011719 142.515625 67.011719 142.515625 C 67.011719 142.515625 53.949219 139.855469 53.949219 139.855469 C 51.640625 143.648438 49.683594 147.589844 48.070312 151.632812 C 48.070312 151.632812 58.050781 160.476562 58.050781 160.476562 C 58.050781 160.476562 55.101562 174.953125 55.101562 174.953125 C 55.101562 174.953125 42.476562 179.171875 42.476562 179.171875 C 42.378906 183.570312 42.648438 187.972656 43.273438 192.324219 C 43.273438 192.324219 56.320312 194.984375 56.320312 194.984375 C 56.320312 194.984375 61 208.996094 61 208.996094 C 61 208.996094 52.160156 218.980469 52.160156 218.980469 C 54.25 222.796875 56.671875 226.472656 59.425781 229.964844 C 59.425781 229.964844 72.070312 225.738281 72.070312 225.738281 C 72.070312 225.738281 83.125 235.527344 83.125 235.527344 C 83.125 235.527344 80.460938 248.59375 80.460938 248.59375 C 84.257812 250.910156 88.203125 252.863281 92.242188 254.480469 C 92.242188 254.480469 101.078125 244.496094 101.078125 244.496094 C 101.078125 244.496094 115.550781 247.4375 115.550781 247.4375 C 115.550781 247.4375 119.765625 260.070312 119.765625 260.070312 C 124.167969 260.167969 128.566406 259.902344 132.921875 259.273438 C 132.921875 259.273438 135.578125 246.222656 135.578125 246.222656 C 135.578125 246.222656 149.585938 241.542969 149.585938 241.542969 C 149.585938 241.542969 159.570312 250.382812 159.570312 250.382812 C 163.386719 248.292969 167.0625 245.871094 170.546875 243.117188 C 170.546875 243.117188 166.324219 230.46875 166.324219 230.46875 C 166.324219 230.46875 176.113281 219.410156 176.113281 219.410156 C 176.113281 219.410156 189.175781 222.070312 189.175781 222.070312 C 191.488281 218.277344 193.445312 214.332031 195.054688 210.292969 C 195.054688 210.292969 185.074219 201.449219 185.074219 201.449219 C 185.074219 201.449219 188.023438 186.976562 188.023438 186.976562 C 188.023438 186.976562 200.652344 182.753906 200.652344 182.753906 C 200.746094 178.355469 200.480469 173.957031 199.851562 169.601562 C 199.851562 169.601562 186.804688 166.941406 186.804688 166.941406 C 186.804688 166.941406 182.125 152.929688 182.125 152.929688 C 182.125 152.929688 190.964844 142.945312 190.964844 142.945312 C 188.875 139.128906 186.457031 135.449219 183.699219 131.960938 C 183.699219 131.960938 171.054688 136.1875 171.054688 136.1875 C 171.054688 136.1875 160 126.394531 160 126.394531 C 160 126.394531 162.664062 113.332031 162.664062 113.332031 C 158.867188 111.015625 154.925781 109.0625 150.886719 107.449219 C 146.847656 105.835938 150.886719 107.449219 150.886719 107.449219 Z M 150.886719 107.449219 " fill-opacity="1" fill-rule="nonzero"/><path fill="#405b72" d="M 243.53125 212.769531 C 265.375 212.769531 283.082031 230.476562 283.082031 252.320312 C 283.082031 274.164062 265.375 291.871094 243.53125 291.871094 C 221.6875 291.871094 203.980469 274.164062 203.980469 252.320312 C 203.980469 230.476562 221.6875 212.769531 243.53125 212.769531 Z M 267.238281 185.113281 C 263.742188 183.871094 260.191406 182.921875 256.617188 182.25 C 256.617188 182.25 250.535156 192.609375 250.535156 192.609375 C 250.535156 192.609375 237.214844 192.503906 237.214844 192.503906 C 237.214844 192.503906 231.273438 182.066406 231.273438 182.066406 C 227.363281 182.742188 223.519531 183.742188 219.773438 185.050781 C 219.773438 185.050781 219.699219 197.046875 219.699219 197.046875 C 219.699219 197.046875 208.117188 203.609375 208.117188 203.609375 C 208.117188 203.609375 197.738281 197.523438 197.738281 197.523438 C 194.726562 200.027344 191.898438 202.804688 189.289062 205.847656 C 189.289062 205.847656 195.238281 216.296875 195.238281 216.296875 C 195.238281 216.296875 188.507812 227.769531 188.507812 227.769531 C 188.507812 227.769531 176.476562 227.675781 176.476562 227.675781 C 175.09375 231.429688 174.050781 235.257812 173.328125 239.109375 C 173.328125 239.109375 183.710938 245.199219 183.710938 245.199219 C 183.710938 245.199219 183.625 258.507812 183.625 258.507812 C 183.625 258.507812 173.1875 264.425781 173.1875 264.425781 C 173.867188 268.328125 174.871094 272.179688 176.191406 275.914062 C 176.191406 275.914062 188.203125 276.011719 188.203125 276.011719 C 188.203125 276.011719 194.789062 287.589844 194.789062 287.589844 C 194.789062 287.589844 188.707031 297.953125 188.707031 297.953125 C 191.222656 300.960938 194.007812 303.792969 197.054688 306.398438 C 197.054688 306.398438 207.511719 300.476562 207.511719 300.476562 C 207.511719 300.476562 219.007812 307.21875 219.007812 307.21875 C 219.007812 307.21875 218.925781 319.234375 218.925781 319.234375 C 219.207031 319.335938 219.484375 319.4375 219.761719 319.535156 C 223.257812 320.773438 226.808594 321.722656 230.382812 322.398438 C 230.382812 322.398438 236.460938 312.039062 236.460938 312.039062 C 236.460938 312.039062 249.785156 312.140625 249.785156 312.140625 C 249.785156 312.140625 255.722656 322.578125 255.722656 322.578125 C 259.632812 321.902344 263.480469 320.90625 267.222656 319.59375 C 267.222656 319.59375 267.296875 307.601562 267.296875 307.601562 C 267.296875 307.601562 278.878906 301.035156 278.878906 301.035156 C 278.878906 301.035156 289.257812 307.128906 289.257812 307.128906 C 292.273438 304.617188 295.101562 301.839844 297.707031 298.800781 C 297.707031 298.800781 291.757812 288.347656 291.757812 288.347656 C 291.757812 288.347656 298.492188 276.878906 298.492188 276.878906 C 298.492188 276.878906 310.519531 276.96875 310.519531 276.96875 C 311.90625 273.21875 312.945312 269.390625 313.667969 265.535156 C 313.667969 265.535156 303.285156 259.449219 303.285156 259.449219 C 303.285156 259.449219 303.371094 246.136719 303.371094 246.136719 C 303.371094 246.136719 313.8125 240.226562 313.8125 240.226562 C 313.128906 236.3125 312.121094 232.472656 310.804688 228.730469 C 310.804688 228.730469 298.796875 228.636719 298.796875 228.636719 C 298.796875 228.636719 292.210938 217.058594 292.210938 217.058594 C 292.210938 217.058594 298.289062 206.699219 298.289062 206.699219 C 295.773438 203.683594 292.984375 200.855469 289.9375 198.246094 C 289.9375 198.246094 279.484375 204.171875 279.484375 204.171875 C 279.484375 204.171875 267.992188 197.425781 267.992188 197.425781 C 267.992188 197.425781 268.066406 185.414062 268.066406 185.414062 C 267.792969 185.308594 267.515625 185.210938 267.238281 185.113281 C 266.960938 185.015625 267.238281 185.113281 267.238281 185.113281 Z M 267.238281 185.113281 " fill-opacity="1" fill-rule="nonzero"/></svg>